C:\Users\israe\Dropbox\PhDWork\ExperimentalData\subject14\055\P14S055W03_filtered35.mot
nRows=6
nColumns=28

name C:\Users\israe\Dropbox\PhDWork\ExperimentalData\subject14\055\P14S055W03_filtered35.mot
datacolumns 28
datarows 6
range 0.7750000000 0.7800000000
endheader
time	ground_force_1_vx	ground_force_1_vy	ground_force_1_vz	ground_force_1_px	ground_force_1_py	ground_force_1_pz	ground_moment_1_mx	ground_moment_1_my	ground_moment_1_mz	ground_force_2_vx	ground_force_2_vy	ground_force_2_vz	ground_force_2_px	ground_force_2_py	ground_force_2_pz	ground_moment_2_mx	ground_moment_2_my	ground_moment_2_mz	ground_force_3_vx	ground_force_3_vy	ground_force_3_vz	ground_force_3_px	ground_force_3_py	ground_force_3_pz	ground_moment_3_mx	ground_moment_3_my	ground_moment_3_mz
        0.7750000000	       -0.0000000000	        0.0000000000	        0.0000000000	        0.1988394958	        0.0000558755	       -0.3004071327	        0.0000000000	        0.0000000000	       -0.0000000000	        0.0000000000	        0.0000000000	       -0.0000000000	        0.2029003516	       -0.0000795827	        0.4543649445	       -0.0000000000	       -0.0000000000	       -0.0000000000	      -10.6742367954	      422.8733375065	       12.8655191484	        0.2076431971	        0.0000770316	        1.3583900146	       93.9652436710	        3.6847828634	       25.7043896064	
        0.7760000000	       -0.0000000000	        0.0000000000	        0.0000000000	        0.1988394958	        0.0000558755	       -0.3004071327	        0.0000000000	        0.0000000000	       -0.0000000000	        0.0000000000	        0.0000000000	       -0.0000000000	        0.2029003516	       -0.0000795827	        0.4543649445	       -0.0000000000	       -0.0000000000	       -0.0000000000	      -10.5356253632	      422.1317367717	       12.5543460299	        0.2076431971	        0.0000770316	        1.3583900146	       93.8952366984	        3.6914089192	       25.6888317083	
        0.7770000000	       -0.0000000000	        0.0000000000	        0.0000000000	        0.1988394958	        0.0000558755	       -0.3004071327	        0.0000000000	        0.0000000000	       -0.0000000000	        0.0000000000	        0.0000000000	       -0.0000000000	        0.2029003516	       -0.0000795827	        0.4543649445	       -0.0000000000	       -0.0000000000	       -0.0000000000	      -10.4008305211	      421.3916607755	       12.2400468778	        0.2076431971	        0.0000770316	        1.3583900146	       93.8246100725	        3.6979518979	       25.6754275052	
        0.7780000000	       -0.0000000000	        0.0000000000	        0.0000000000	        0.1988394958	        0.0000558755	       -0.3004071327	        0.0000000000	        0.0000000000	       -0.0000000000	        0.0000000000	        0.0000000000	       -0.0000000000	        0.2029003516	       -0.0000795827	        0.4543649445	       -0.0000000000	       -0.0000000000	       -0.0000000000	      -10.2722755097	      420.6530967498	       11.9240562330	        0.2076431971	        0.0000770316	        1.3583900146	       93.7532332048	        3.7042773145	       25.6633682804	
        0.7790000000	       -0.0000000000	        0.0000000000	        0.0000000000	        0.1988394958	        0.0000558755	       -0.3004071327	        0.0000000000	        0.0000000000	       -0.0000000000	       -0.0000000000	        0.0000000000	       -0.0000000000	        0.2029003516	       -0.0000795827	        0.4543649445	       -0.0000000000	       -0.0000000000	       -0.0000000000	      -10.1521070430	      419.9135571576	       11.6074265905	        0.2076431971	        0.0000770316	        1.3583900146	       93.6808782243	        3.7102754581	       25.6517600939	
        0.7800000000	       -0.0000000000	        0.0000000000	        0.0000000000	        0.1988394958	        0.0000558755	       -0.3004071327	        0.0000000000	        0.0000000000	       -0.0000000000	       -0.0000000000	        0.0000000000	       -0.0000000000	        0.2029003516	       -0.0000795827	        0.4543649445	       -0.0000000000	       -0.0000000000	       -0.0000000000	      -10.0408950273	      419.1691226362	       11.2909238706	        0.2076431971	        0.0000770316	        1.3583900146	       93.6072251176	        3.7158937342	       25.6396703591	
